<?xml version="1.0" encoding="utf-8"?>
<!-- Generator: Adobe Illustrator 23.0.1, SVG Export Plug-In . SVG Version: 6.00 Build 0)  -->
<svg version="1.1" id="Layer_1" xmlns="http://www.w3.org/2000/svg" xmlns:xlink="http://www.w3.org/1999/xlink" x="0px" y="0px"
	 viewBox="0 0 480 160" style="enable-background:new 0 0 480 160;" xml:space="preserve">
<style type="text/css">
	.st0{fill:#E39F24;}
</style>
<g>
	<g id="wNBdKN.tif">
		<g>
			<path class="st0" d="M52,120.6c-2.8,0.9-5.6,1.7-8.3,2.7c-0.5,0.2-1,0.3-1.6,0.5c-1.5,0.9-2.6,0.4-3.9-0.7
				c-6.4-5.6-11.5-12.2-15.2-19.9c-2.4-4.9-4-10-4.9-15.4c-1.1-6.6-1.2-13.2-0.2-19.9c3.9-25.5,24-46.1,49.4-50.2
				c22.5-3.7,41.6,3.1,56.9,20.1c6.7,7.4,11,16.2,13.2,25.9c1.4,5.9,1.8,12,1.4,18c-0.5,7.6-2.5,14.8-5.8,21.7
				c-3.8,7.8-9,14.5-15.6,20.1c-0.7,0.7-1.4,0.9-2.4,0.5c-3.4-1.4-7-2.4-10.8-3.6c1.7-1.2,3.3-2.2,4.8-3.3
				c9.2-7.2,15.3-16.4,18.1-27.7c2.6-10.3,2-20.5-2-30.3c-6.8-16.7-19.1-27-36.7-31.1c-0.3-0.1-0.7-0.2-0.9-0.4
				c-3.3-3.3-7.4-3.9-11.8-3.4c-2.8,0.3-5.3,1.4-7.3,3.4c-0.3,0.3-0.6,0.4-1,0.5c-14.2,3.2-25.2,11-32.8,23.3
				c-4.3,6.9-6.6,14.5-7.1,22.8c-0.7,11.7,2.3,22.3,8.9,31.9c3.9,5.7,8.9,10.4,14.8,14C51.5,120.1,51.8,120.2,52,120.6z"/>
			<path class="st0" d="M55.3,119.6c-0.5,0.4-1,0.3-1.5,0.1c-6.7-3.8-12.2-8.9-16.6-15.3c-3.8-5.5-6.3-11.6-7.5-18.1
				c-1-5.2-1.1-10.4-0.4-15.7c0.6-4.6,1.8-9,3.7-13.2C37.7,47.1,45,39.3,55,34c3.3-1.8,6.8-3.1,10.5-4.1c0.2-0.1,0.5-0.2,0.9,0
				c-0.5,1.2-1.2,2.3-1.4,3.5c-0.1,0.5-0.5,0.5-0.9,0.6c-6.8,2.2-12.7,5.7-17.9,10.6c-5.1,4.9-8.9,10.8-11.3,17.6
				C32.7,68.3,32,74.6,32.5,81c0.7,8.6,3.7,16.5,9,23.4c1,1.3,2,2.5,3.1,3.7c0.2,0.2,0.5,0.5,0.5,0.9c-0.2,1.2,0.5,1.9,1.2,2.7
				c2.7,2.8,5.6,5.2,8.5,7.7C55,119.4,55.1,119.5,55.3,119.6z"/>
			<path class="st0" d="M102.3,119.4c2.9-2.4,5.6-5,7.3-8.3c1.5-3.2,4.1-5.5,6-8.3c4.4-6.6,7-13.7,7.7-21.6c0.8-9-0.9-17.5-5.2-25.3
				c-5.9-10.7-14.6-17.9-26.2-21.7c-0.7-0.2-1-0.5-1.2-1.2c-0.3-1.1-0.8-2.1-1.4-3.1c16.8,3.3,34.2,18.4,37.3,40.4
				C129.9,94,115.8,112.5,102.3,119.4z"/>
			<path class="st0" d="M98.3,46.9c1.3,0.9,1.8-0.5,2.5-1.2c1-1,2-2.1,3-3.2c0.4-0.5,0.6-0.4,1,0c3.1,2.3,5.7,5,8.1,8.1
				c0.3,0.4,0.3,0.6-0.1,0.9c-1.5,1.3-2.9,2.7-4.4,4c-0.2,0.2-0.5,0.3-0.3,0.7c0.6,1.4-0.2,2.2-1.1,3c-1.1,0.9-2.4,1.4-3.8,1.6
				c-2.1,0.4-3.8,1.4-5.3,2.9c-0.2,0.2-0.4,0.5-0.9,0.4c-2.4-0.9-4.9-1.3-7.1-2.2s-2.2-0.9-0.5-2.6c1.5-1.5,3.2-2.9,4.2-4.9
				c0.7-1.4,0.7-2.9,1.3-4.4c0.3-0.7,0.7-1.5,1.2-2C96.6,47.4,97.3,47,98.3,46.9z"/>
			<path class="st0" d="M48.2,57.2c0-0.2,0-0.2,0-0.2c0.8-1.2-0.3-1.7-1-2.3c-1.2-1.2-2.5-2.3-3.7-3.5c-0.3-0.3-0.5-0.5-0.1-1
				c2.2-2.7,4.7-5.2,7.4-7.4c0.5-0.4,0.8-0.4,1.2,0.1c1.4,1.5,2.8,3,4.2,4.5c0.3,0.3,0.5,0.5,1,0.2c0.8-0.5,1.5-0.1,2.1,0.5
				c1,0.8,1.6,1.9,1.7,3c0.5,3.7,2.7,6.2,5.3,8.6c1.5,1.4,1.5,1.5-0.5,2.2c-2.1,0.8-4.4,1.3-6.4,2.3c-0.5,0.2-0.7,0-0.9-0.3
				C57,62,55,60.8,52.6,60.4c-1.2-0.2-2.5-0.7-3.5-1.6C48.6,58.4,48.2,57.8,48.2,57.2z"/>
			<path class="st0" d="M38.4,71.2c0.7,0,1.5,0.1,2.2,0.1c0.8,0,1.6,0.2,2-1c0.3-0.8,1.2-0.8,2-0.7c1.5,0.1,2.7,0.7,3.9,1.5
				c1.3,0.9,2.7,1.5,4.3,1.7c0.5,0,0.6,0.2,0.4,0.7c-0.7,2.5-1.5,5-2.2,7.5c-0.2,0.5-0.4,0.8-1,1.1c-1.1,0.5-2.2,1.2-3.3,1.8
				c-0.8,0.4-1.6,0.7-2.5,0.7s-1.7-0.2-2-1.1c-0.2-0.5-0.5-0.6-1-0.6c-2,0.1-4,0.1-6.1,0.2c-0.7,0-1-0.1-1.1-0.8
				c-0.3-3.4-0.3-6.8,0-10.2c0.1-0.7,0.3-0.9,1-0.9C36.3,71.2,37.3,71.1,38.4,71.2L38.4,71.2z"/>
			<path class="st0" d="M103.9,72.7c1.8-0.2,3.1-1.3,4.6-2.1c1.1-0.5,2.2-1,3.4-0.9c0.7,0,1.5,0.2,1.8,1c0.2,0.7,0.7,0.7,1.2,0.7
				c2-0.1,3.9-0.1,5.9-0.2c0.6,0,0.8,0.1,0.9,0.8c0.5,3.4,0.5,6.9,0,10.3c-0.1,0.7-0.2,0.9-1,0.8c-2-0.1-4-0.2-6.1-0.2
				c-0.5,0-0.7,0-0.9,0.5c-0.3,1-1.2,1.2-2.2,1.2c-1.7-0.1-3.2-1-4.6-1.9c-0.2-0.1-0.2-0.3-0.3-0.5C105.9,79,104.9,75.9,103.9,72.7z
				"/>
			<path class="st0" d="M128.9,32.1c0,2.2-1.3,4.1-3.4,4.9c-0.5,0.2-1,0.2-1.4-0.3c-1.5-1.8-3.2-3.4-4.9-4.9
				c-0.6-0.5-0.6-0.9-0.3-1.6c1-2.2,3.4-3.6,5.8-3.1C127.2,27.5,128.9,29.5,128.9,32.1z"/>
			<path class="st0" d="M129.4,122.8c0,2.2-1.5,4.3-3.7,4.9c-0.5,0.2-1,0.1-1.5-0.1c-1.3-0.6-2.6-1.2-3.9-1.8
				c-1.3-0.6-1.7-2.2-0.6-3.2c1.6-1.4,3.1-2.9,4.5-4.5c0.5-0.5,0.8-0.5,1.4-0.3C127.8,118.4,129.4,120.5,129.4,122.8z"/>
			<path class="st0" d="M26.7,123c0-2.4,1.6-4.5,3.7-5.1c0.6-0.2,1-0.1,1.5,0.4c1.3,1.6,2.9,3,4.4,4.4c1,1,0.8,2.7-0.5,3.3
				c-1.3,0.6-2.7,1.2-4,1.7c-1.5,0.5-2.5-0.3-3.4-1.2C27.1,125.5,26.7,124.2,26.7,123z"/>
			<path class="st0" d="M77.7,13.4c0,0.1,0,0.4-0.1,0.7c-0.4,1.6-0.5,1.7-2.1,1.8c-1.9,0.1-3.8,0.2-5.7,0.5c-0.7,0.1-1-0.1-1.4-0.7
				c-1.4-2.2-0.7-5.3,1.5-6.8s5.4-0.9,6.9,1.3C77.4,11.3,77.7,12.1,77.7,13.4z"/>
			<path class="st0" d="M8.6,71.3c0.1-1.6,1-3,2.7-3.9s3.4-0.7,5,0.2c0.5,0.2,0.6,0.6,0.6,1.1c-0.2,2.2-0.5,4.5-0.5,6.8
				c0,0.6-0.4,0.7-0.8,1C12.2,77.8,8.5,75.3,8.6,71.3z"/>
			<path class="st0" d="M88.4,13.3c0,0.2,0,0.7-0.2,1.2c-0.4,1.7-1,2-2.7,1.8c-1.8-0.2-3.7-0.3-5.5-0.4c-0.8,0-1.1-0.4-1.4-1
				c-0.7-1.8-0.2-4.1,1.2-5.4c1.6-1.4,3.4-1.8,5.4-1C87.3,9.3,88.4,11.1,88.4,13.3z"/>
			<path class="st0" d="M142.1,76.9c-0.1,0-0.5,0-0.9-0.1c-1.5-0.4-1.6-0.5-1.7-2.1c-0.1-1.9-0.2-3.8-0.5-5.7
				c-0.1-0.7,0.1-1,0.5-1.2c1.5-1,3.8-1,5.4,0c1.7,1.1,2.6,3.1,2.2,5.1C146.8,75.2,144.8,76.8,142.1,76.9z"/>
			<path class="st0" d="M147.3,82.6c0,2-0.9,3.4-2.6,4.3c-1.7,1-3.5,0.8-5.1-0.2c-0.5-0.2-0.6-0.5-0.5-1.2c0.3-2.1,0.5-4.2,0.5-6.4
				c0-0.7,0.2-1,0.8-1.2C143.6,76.6,147.3,79,147.3,82.6z"/>
			<path class="st0" d="M16.9,85.7c0.2,0.5-0.2,0.9-0.9,1.2c-2,1.1-4.6,0.7-6.2-1.1c-1.5-1.6-1.7-4.3-0.4-6.1c1.4-2,3.9-2.7,6.1-1.8
				c0.5,0.2,0.8,0.5,0.8,1c0,1.1,0,2.2,0.1,3.2C16.6,83.3,16.8,84.4,16.9,85.7z"/>
			<path class="st0" d="M33,27.7c1.4,0,2.9,1,3.9,2.7c0.3,0.5,0.2,0.8-0.2,1.2c-2,1.7-3.9,3.6-5.5,5.6c-0.4,0.5-0.7,0.4-1.2,0.2
				c-2.1-1-3.2-3.5-2.7-5.7C27.9,29.3,29.8,27.7,33,27.7z"/>
			<path class="st0" d="M11.5,77.2c-1.9,1-3.2,2.3-3.5,4.4c-0.1,0.5-0.4,0.6-0.8,0.6c-2,0-3.5-0.8-4.5-2.5s-0.9-3.4,0.1-5.1
				s2.6-2.4,4.6-2.4c0.5,0,0.6,0.3,0.7,0.6C8.3,74.9,9.5,76.2,11.5,77.2z"/>
			<path class="st0" d="M78,10.9c-0.8-1.9-2.3-3-4.3-3.4C73.1,7.4,73,7.1,73,6.7c-0.1-2.3,1.6-4.5,4-5c2.3-0.5,4.8,0.8,5.6,2.9
				C82.8,5.1,82.9,5.5,83,6c0.2,0.9,0,1.4-1,1.6C80.4,7.9,79.8,8.5,78,10.9z"/>
			<path class="st0" d="M144.4,77.2c2-1,3.2-2.4,3.6-4.4c0.1-0.4,0.3-0.5,0.7-0.6c2.7-0.2,5.1,2.2,5.2,5c0,2.8-2.4,5.2-5.1,5
				c-0.4,0-0.7,0-0.7-0.5C147.6,79.7,146.5,78.2,144.4,77.2z"/>
			<path class="st0" d="M46.5,100.3c0,0.3,0.1,0.3,0.1,0.4c-0.4,1.9-0.7,3.8-1.1,5.9c-0.8-1-1.5-1.9-2.3-2.7c-0.2-0.2-0.2-0.4,0-0.5
				C44.2,102.4,45.2,101.4,46.5,100.3z"/>
			<path class="st0" d="M110.5,106.5c0-1.9,0-3.6-0.3-5.5c1.1,0.7,1.8,1.5,2.6,2.2c0.2,0.2,0.2,0.3,0,0.5
				C112.1,104.7,111.5,105.6,110.5,106.5z"/>
			<path class="st0" d="M130.2,133.6c-1.5-1.3-3.2-2.4-4.9-3.3c-6.7-3.7-13.9-6.1-21.3-8.3c-2-0.6-4-1.1-6.2-1.7
				c3.9-2,6.7-4.9,9.3-8.2c1.4-1.7,2-3.6,1.8-5.8c-0.2-2.9-0.3-5.9-0.7-8.8c-0.7-4.8-1.7-9.5-2.9-14.3c-1-4-2.3-8-3.6-12
				c-1-3.1-2.8-5.2-6.1-5.9c-0.8-0.2-1.5-0.4-2.3-0.6c-1.8-0.5-3.6-1-5.3-1.9c-2.7-1.5-4-3.8-4.3-6.9c0-0.4,0-0.7,0.4-1
				c2.3-1.5,3.8-3.7,4.7-6.3c0.2-0.5,0.3-1.2,1.2-1.1c0.4,0,0.7-0.5,1-0.9c0.8-1.5,1.2-3.2,1-4.9c-0.1-0.8-0.5-1.4-1.3-1.6
				c-0.5-0.1-0.6-0.3-0.6-0.8c0-1.9-0.3-3.7-0.8-5.4c-1.2-4.3-3.8-7.3-8.3-8.3c-1.8-0.4-3.6-0.4-5.4-0.1c-4.2,0.7-7.1,2.9-8.7,6.9
				c-0.8,2.2-1.1,4.4-1.2,6.6c0,0.3,0.2,0.8-0.4,0.9c-1.2,0.2-1.5,1.1-1.5,2.1c0,1.7,0.3,3.2,1.2,4.6c0.3,0.4,0.6,0.8,1.2,0.8
				s0.6,0.3,0.8,0.7c0.9,2.5,2.2,4.8,4.4,6.4c0.5,0.4,0.6,0.7,0.5,1.3c-0.4,3.5-2,6-5.4,7.1c-2,0.7-3.9,1.2-5.8,2
				c-2.1,1-3.7,2.4-4.6,4.6c-1.3,3.3-2.3,6.8-3.2,10.2c-1.4,5.1-2.7,10.3-3.8,15.4c-0.9,4.2-1.8,8.4-2.4,12.7
				c-0.1,0.9,0,1.6,0.7,2.3c1.8,1.8,3.7,3.5,5.6,5.1c1.8,1.6,3.7,3.1,5.6,4.8c-2.7,0.7-5.3,1.4-7.8,2.2c-7.6,2.2-15,4.7-22,8.5
				c-2.5,1.3-4.9,2.8-6.6,5.2c-1.2,1.9-1,3.3,0.9,4.5c0.3,0.2,0.7,0.5,1.1,0.6c2.4,1.2,4.9,1.7,7.5,2.1c9,1.3,17.9,1.3,27,0.4
				c5.4-0.6,10.8-0.6,16.2,1c2.9,0.9,5.9,1.2,9,0.9c4.6-0.5,9.3-1,13.9-1.5c3.1-0.3,6.2-0.6,9.3-0.8c3-0.2,5.9,0.7,8.8,1.4
				c0.5,0.1,1.2,0.5,1.6-0.3c0.4-0.7,0.5-1.5-0.1-2.2c-0.2-0.3-0.5-0.6-0.9-0.7c-2.1-0.5-3.8-1.7-5.4-3c-0.4-0.3-0.9-0.5-1.4-0.7
				c-1.6-0.6-3.4-1-5.1-1c-3,0-5.6-1-7.8-3.2c-0.2-0.2-0.4-0.3-0.6-0.5c-1-1.1-2.1-1-3.3-0.3c-1.6,0.9-3.1,2.1-4.5,3.2
				c-1.2,1-2.6,1.5-4.2,1.6c-2,0.1-4,0.1-5.9-0.1c-4.7-0.4-9.2-1.6-13.3-4c-3.1-1.8-6.4-3.3-10-3.7c-1.7-0.2-3.4-0.3-5.1-0.5
				c-0.3-0.2-0.6,0-0.9-0.2c-0.3-0.2,0.1-0.1,0.1-0.2c5.4-0.7,10.8-0.2,15.6,2.6c5.1,3,10.5,4.4,16.4,4.6c2.9,0.1,5.6-0.1,7.8-2.3
				c1.2-1.1,2.6-2,4.1-2.7c1.5-0.6,2.7-0.5,4,0.5c0.7,0.6,1.4,1.1,2.1,1.7c1,0.8,2.1,1.5,3.4,1.6c1,0,1.9,0.1,2.8,0.2
				c3,0.3,5.9,0.9,8.3,3.1c0.6,0.6,1.3,1,2.1,1.2c2.1,0.5,4,2,3.5,4.2c-0.1,0.4,0.1,0.5,0.5,0.5c3.3-0.1,6.6-0.4,9.5-2
				C133.4,140.3,133.8,136.6,130.2,133.6z M68.8,116.7c-0.4,0.3-0.7,0.6-1.2,0c-2.2-2.4-4.7-4.7-7.3-6.6c-0.9-0.7-1.8-1.3-2.7-1.9
				c-0.5-0.3-1-0.5-0.5-1.3s0.9-0.3,1.3-0.1l4.9,3.6c0.2,0.2,0.4,0.3,0.7,0.5c0.1-1.6,0.2-3.1,0.2-4.6c0.1-4.8,0-9.5-0.2-14.3
				c0-1.1-0.2-2.2-0.5-3.2c-0.2-0.8,0.3-0.7,0.7-0.9c0.6-0.2,0.7,0.2,0.7,0.7c0.3,3.1,0.6,6.1,0.7,9.3c0,3.9,0.3,7.8-0.3,11.7
				c-0.3,2.1,0.4,3.3,1.8,4.5c0.6,0.5,1,1,1.5,1.5C69.2,116,69.4,116.3,68.8,116.7z M86.5,119.7c-0.4,0.5-0.6,0.7-1.1,0.2
				c-0.5-0.4-0.6-0.6-0.2-1.2c2.1-2.6,4.3-5.2,6.8-7.5c0.5-0.5,0.7-1,0.5-1.6c-1.1-5.6-1-11.3-0.5-17.1c0.1-1,0-2.1,0.2-3.1
				c0.1-0.5,0-0.9,0.7-0.7c0.7,0.1,0.8,0.3,0.8,1c-0.2,2-0.4,4-0.5,6c-0.3,4.4-0.2,8.7,0.6,13c0,0.2,0.1,0.3,0.2,0.5
				c1.4-1.1,2.7-2.1,4.1-3c0.7-0.5,1.2-0.3,1.5,0.5c0.1,0.4,0.1,0.5-0.2,0.7C94.2,110.6,90.3,115,86.5,119.7z"/>
		</g>
	</g>
	<path class="st0" d="M187,134.3h12.4V63.6h7.7c2.2,0,4,0.2,5.5,0.5c1.5,0.3,2.8,1,3.8,1.8c1,0.9,1.8,2,2.3,3.5s0.7,3.3,0.7,5.5h3.2
		l-0.5-16.7h-57.9l-0.5,16.4h3.2c0.2-2.2,0.5-3.9,1-5.3s1.2-2.6,2.2-3.4c0.9-0.9,2.2-1.4,3.6-1.8c1.5-0.3,3.3-0.5,5.5-0.5h7.7v70.7
		L187,134.3L187,134.3z"/>
	<path class="st0" d="M251.6,135.5c2.7,0,5.4-0.3,8.1-0.8s5.3-1.3,7.8-2.3v-5c-1.5,0.7-3.3,1.2-5.2,1.5c-1.9,0.3-3.7,0.5-5.4,0.5
		c-2.5,0-4.8-0.4-6.7-1.1c-2-0.7-3.8-1.8-5.3-3.1c-1.5-1.3-2.8-2.8-3.9-4.6c-1.1-1.8-2-3.6-2.7-5.7c-0.7-2-1.2-4.2-1.5-6.3
		c-0.3-2.2-0.5-4.4-0.5-6.5h32.2c0-3.4-0.4-6.5-1.2-9.2c-0.8-2.7-2.1-4.9-3.8-6.7S259.6,83,257,82c-2.6-0.9-5.7-1.4-9.4-1.4
		c-4.2,0-7.7,0.6-10.8,1.8c-3,1.1-5.5,2.8-7.3,5.1c-2,2.2-3.4,4.9-4.2,8.1c-0.9,3.2-1.3,6.8-1.3,10.8c0,4.4,0.6,8.5,1.8,12.1
		c1.1,3.6,2.9,6.7,5.2,9.2c2.3,2.6,5.2,4.5,8.7,5.9C243.1,134.9,247.1,135.5,251.6,135.5z M237.1,92.8c0.5-1.5,1.1-3,2.1-4.2
		s2.1-2.3,3.4-3c1.3-0.7,2.9-1.1,4.7-1.1c1.9,0,3.5,0.4,4.8,1.1s2.3,1.8,3.1,3c0.7,1.2,1.3,2.6,1.7,4.2c0.3,1.5,0.5,3.2,0.5,4.8
		h-20.9C236.4,96,236.6,94.4,237.1,92.8z"/>
	<path class="st0" d="M291.5,134.3v-27c0-2.4,0.3-4.6,0.9-6.7c0.5-2.1,1.5-3.8,2.6-5.3c1.2-1.5,2.7-2.7,4.6-3.6
		c1.8-0.9,4-1.3,6.6-1.3c0.9,0,2,0.1,2.9,0.5c1,0.3,2,0.6,2.8,0.9V81.2c-1-0.2-2-0.3-3-0.4s-2-0.1-3-0.1c-2.1,0-3.9,0.5-5.5,1.3
		c-1.5,0.9-2.9,2.1-4,3.5s-2,3-2.8,4.8c-0.7,1.8-1.4,3.5-1.9,5.2h-0.2v-15l-20.2,3.6v2.3c1.9,0.1,3.4,0.3,4.6,0.6
		c1.1,0.3,2.1,0.9,2.7,1.7c0.7,0.8,1.1,1.8,1.3,3c0.2,1.3,0.3,2.8,0.3,4.6v37.8L291.5,134.3L291.5,134.3z"/>
	<path class="st0" d="M348.5,157c2.8-0.9,5.1-2.2,6.8-4c1.7-1.8,3-4.1,3.7-6.9c0.7-2.8,1.1-6.2,1.1-10v-44c0-3,0.8-5.1,2.4-6.3
		c1.5-1.2,3.8-1.8,6.5-1.7v-2.3h-20.2v6.5h-0.3c-1.6-2.6-3.6-4.4-6-5.8c-2.4-1.3-5.1-2-8.2-2c-2.7,0-5.1,0.4-7.1,1.2
		c-2,0.8-3.8,1.9-5.3,3.3c-1.5,1.3-2.7,3-3.7,4.9c-0.9,1.9-1.8,3.8-2.3,6s-0.9,4.3-1.2,6.6c-0.3,2.3-0.3,4.5-0.3,6.7
		c0,3.2,0.3,6.3,1.1,9.3c0.7,3,1.8,5.7,3.4,8c1.5,2.4,3.6,4.2,6.2,5.6s5.6,2.2,9.3,2.2c1.7,0,3.2-0.1,4.6-0.4s2.6-0.7,3.8-1.3
		c1.1-0.7,2.2-1.5,3.2-2.4c0.9-1,1.9-2.2,2.7-3.6h0.2v13c0,2-0.1,4-0.3,5.8s-0.7,3.4-1.4,4.7s-1.8,2.4-3.3,3.2s-3.4,1.2-5.9,1.2
		c-1.9,0-3.5-0.3-4.8-0.9c-1.3-0.6-2.4-1.4-3.2-2.5c-0.9-1.1-1.5-2.3-1.8-3.8c-0.4-1.4-0.6-3-0.6-4.7h-12.8c0,3.5,0.7,6.3,2.1,8.4
		c1.4,2.1,3.2,3.6,5.5,4.8c2.2,1.1,4.8,1.8,7.6,2.2c2.8,0.3,5.7,0.5,8.5,0.5C342.3,158.3,345.7,157.9,348.5,157z M348.3,117.7
		c-0.3,1.9-0.9,3.6-1.8,5.2c-0.9,1.5-2.1,2.8-3.6,3.8c-1.5,0.9-3.4,1.5-5.6,1.5c-1.6,0-3-0.3-4.1-1s-2.1-1.6-2.8-2.8
		s-1.4-2.4-1.8-3.9c-0.5-1.5-0.8-2.9-1.1-4.4c-0.3-1.5-0.4-3-0.5-4.4s-0.1-2.8-0.1-4c0-1.3,0.1-2.7,0.1-4.2c0.1-1.5,0.3-3.1,0.5-4.6
		c0.3-1.5,0.6-3,1.1-4.5s1.1-2.8,2-3.9c0.8-1.1,1.9-2,3.1-2.7s2.7-1,4.5-1c1.9,0,3.5,0.5,4.9,1.3s2.4,2,3.3,3.4
		c0.9,1.3,1.5,2.9,1.9,4.6s0.6,3.3,0.6,4.9v11C348.8,114,348.7,115.9,348.3,117.7z"/>
	<path class="st0" d="M413.6,134.3V100c0-3.4-0.3-6.3-0.9-8.7s-1.6-4.4-3-6.1c-1.4-1.5-3.4-2.8-5.7-3.5c-2.4-0.7-5.3-1.1-8.9-1.1
		c-2.8,0-5.5,0.3-7.8,0.7s-4.5,1.3-6.3,2.5c-1.8,1.1-3.4,2.8-4.6,4.7s-2.1,4.4-2.6,7.4h13.5c0-1.4,0.1-2.8,0.3-4.2
		c0.1-1.3,0.5-2.6,1.1-3.7s1.3-2,2.4-2.6c1-0.7,2.4-1,4.2-1c1.3,0,2.4,0.3,3.2,0.7c0.9,0.5,1.5,1.1,2.1,2c0.5,0.8,0.9,1.8,1.2,2.8
		c0.3,1.1,0.4,2.2,0.5,3.2c0.1,1.1,0.1,2.2,0.1,3.3c0,1.1,0,2,0,2.9v5.8c-1.8,0.1-3.8,0.2-6.1,0.4c-2.2,0.2-4.4,0.5-6.6,1
		s-4.3,1.1-6.4,2c-2.1,0.8-3.9,1.8-5.5,3.1c-1.5,1.3-2.8,2.8-3.8,4.6c-0.9,1.8-1.4,3.9-1.4,6.3c0,2,0.5,3.8,1.3,5.4
		c0.9,1.6,2.1,3,3.5,4.1c1.5,1.1,3.1,2,4.9,2.6s3.6,0.9,5.4,0.9s3.2-0.2,4.6-0.5c1.3-0.3,2.6-0.9,3.7-1.5c1.1-0.7,2.2-1.5,3.2-2.5
		c1-0.9,2-2.1,3-3.4v6.7L413.6,134.3L413.6,134.3z M401.7,120.6c-0.4,1.6-1,3.1-1.8,4.4c-0.9,1.3-2,2.4-3.2,3.2
		c-1.3,0.8-3,1.2-4.8,1.2c-1.2,0-2.2-0.3-3.1-0.8s-1.5-1.2-2.1-2s-0.9-1.8-1.2-2.8c-0.3-1.1-0.4-2.1-0.4-3.2c0-2.4,0.5-4.2,1.7-5.7
		c1.1-1.5,2.5-2.6,4.2-3.4s3.6-1.4,5.6-1.7c2-0.3,4-0.5,5.8-0.6v6.5C402.2,117.4,402,119,401.7,120.6z"/>
	<path class="st0" d="M459,80.7c-1-0.1-2-0.1-3-0.1c-2.1,0-3.9,0.5-5.5,1.3c-1.5,0.9-2.9,2.1-4,3.5s-2,3-2.8,4.8
		c-0.7,1.8-1.4,3.5-1.9,5.2h-0.3V80.5l-20.2,3.6v2.3c1.9,0.1,3.4,0.3,4.6,0.6s2.1,0.9,2.7,1.7c0.7,0.8,1.1,1.8,1.3,3
		c0.2,1.3,0.3,2.8,0.3,4.6v37.8h11.3v-27c0-2.4,0.3-4.6,0.9-6.7c0.5-2.1,1.5-3.8,2.6-5.3c1.2-1.5,2.7-2.7,4.6-3.6
		c1.8-0.9,4-1.3,6.6-1.3c0.9,0,2,0.1,2.9,0.5c1,0.3,2,0.6,2.8,0.9V81C461,80.9,460,80.7,459,80.7z"/>
</g>
<g>
	<path class="st0" d="M474.6,81.6c-0.1-0.2-0.3-0.9-0.5-1.8c-0.1-0.6-0.4-1-0.7-1.3c0.7-0.4,1-1.1,1-1.8c0-0.6-0.3-1.2-0.7-1.5
		c-0.5-0.5-1.3-0.7-2.4-0.7c-0.7,0-1.4,0.1-1.9,0.1l-0.3,0.1v7.3h1.6v-3h0.5c0.7,0,1,0.3,1.2,1.1c0.3,1.1,0.4,1.5,0.5,1.7l0.1,0.1
		h1.7L474.6,81.6z M470.7,76c0.1,0,0.3,0,0.6,0c0.9,0,1.4,0.3,1.4,0.9c0,0.7-0.7,1-1.3,1h-0.7V76z"/>
	<g>
		<path class="st0" d="M471.5,85.9c-4.1,0-7.6-3.4-7.6-7.6c0-4.1,3.4-7.6,7.6-7.6c4.1,0,7.6,3.4,7.6,7.6
			C479,82.5,475.7,85.9,471.5,85.9z M471.5,72.4c-3.3,0-6,2.7-6,6c0,3.3,2.7,6,6,6c3.3,0,6-2.7,6-6
			C477.5,75.1,474.8,72.4,471.5,72.4z"/>
	</g>
</g>
</svg>
